# xmcd
#
# Track frame offsets:
# 150
# 16300
# 34974
# 51226
# 69346
# 89314
# 104931
# 120027
# 140947
# 154985
# 170379
# 191886
#
# Disc length: 2805 seconds
#
#
# Revision: 0
# Processed by: cddbd v1.5.1PL0 Copyright (c) Steve Scherf et al.
# Submitted via: FreeRIP 2.91 
#
DISCID=ab0af30c
DTITLE=Ouiji - Misunderstood
DYEAR=2002
DGENRE=Rock
TTITLE0=Change
TTITLE1=I Don't Know
TTITLE2=Alright Already
TTITLE3=Misunderstood
TTITLE4=Crushing You
TTITLE5=How Many Summers
TTITLE6=Hard Luck Story
TTITLE7=Not To Complain
TTITLE8=Oh Well
TTITLE9=Take Control
TTITLE10=1 Maybe 2
TTITLE11=No Romeos No Juliets
EXTD=
EXTT0=
EXTT1=
EXTT2=
EXTT3=
EXTT4=
EXTT5=
EXTT6=
EXTT7=
EXTT8=
EXTT9=
EXTT10=
EXTT11=
PLAYORDER=
